solid OpenSCAD_Model
  facet normal 0.279981 -0.861693 -0.423197
    outer loop
      vertex 6.82328 0.76412 12.5
      vertex 7.77696 0.776085 13.1066
      vertex 7.34914 0.38206 13.6258
    endloop
  endfacet
  facet normal 0.279981 -0.861693 -0.423198
    outer loop
      vertex 7.77696 0.776085 13.1066
      vertex 6.82328 0.76412 12.5
      vertex 7.74081 1.06224 12.5
    endloop
  endfacet
  facet normal 0 0 -1
    outer loop
      vertex 7.34914 -0.38206 13.6258
      vertex 7.875 0 13.6258
      vertex 7.8079 -0.531122 13.6258
    endloop
  endfacet
  facet normal 0 0 -1
    outer loop
      vertex 7.34914 0.38206 13.6258
      vertex 7.875 0 13.6258
      vertex 7.34914 -0.38206 13.6258
    endloop
  endfacet
  facet normal 0 0 -1
    outer loop
      vertex 7.875 0 13.6258
      vertex 7.34914 0.38206 13.6258
      vertex 7.8079 0.531122 13.6258
    endloop
  endfacet
  facet normal 0.27998 -0.861693 -0.423198
    outer loop
      vertex 7.77696 0.776085 13.1066
      vertex 7.8079 0.531122 13.6258
      vertex 7.34914 0.38206 13.6258
    endloop
  endfacet
  facet normal 0.279981 -0.861693 0.423197
    outer loop
      vertex 6.82328 0.76412 12.5
      vertex 7.77696 0.776085 11.8934
      vertex 7.74081 1.06224 12.5
    endloop
  endfacet
  facet normal 0.279981 -0.861693 0.423197
    outer loop
      vertex 7.77696 0.776085 11.8934
      vertex 6.82328 0.76412 12.5
      vertex 7.34914 0.38206 11.3742
    endloop
  endfacet
  facet normal 0.279981 0.861693 -0.423198
    outer loop
      vertex 6.82328 -0.76412 12.5
      vertex 7.77696 -0.776085 13.1066
      vertex 7.74081 -1.06224 12.5
    endloop
  endfacet
  facet normal 0.279981 0.861693 -0.423197
    outer loop
      vertex 7.77696 -0.776085 13.1066
      vertex 6.82328 -0.76412 12.5
      vertex 7.34914 -0.38206 13.6258
    endloop
  endfacet
  facet normal 0.906037 0 -0.423198
    outer loop
      vertex 7.34914 -0.38206 13.6258
      vertex 6.82328 0.76412 12.5
      vertex 7.34914 0.38206 13.6258
    endloop
  endfacet
  facet normal 0.906037 0 -0.423198
    outer loop
      vertex 6.82328 0.76412 12.5
      vertex 7.34914 -0.38206 13.6258
      vertex 6.82328 -0.76412 12.5
    endloop
  endfacet
  facet normal 0.27998 -0.861693 0.423198
    outer loop
      vertex 7.8079 0.531122 11.3742
      vertex 7.77696 0.776085 11.8934
      vertex 7.34914 0.38206 11.3742
    endloop
  endfacet
  facet normal 0.27998 0.861693 -0.423198
    outer loop
      vertex 7.8079 -0.531122 13.6258
      vertex 7.77696 -0.776085 13.1066
      vertex 7.34914 -0.38206 13.6258
    endloop
  endfacet
  facet normal 0.27998 0.861693 0.423198
    outer loop
      vertex 7.77696 -0.776085 11.8934
      vertex 7.8079 -0.531122 11.3742
      vertex 7.34914 -0.38206 11.3742
    endloop
  endfacet
  facet normal -0 0 1
    outer loop
      vertex 7.34914 0.38206 11.3742
      vertex 7.875 0 11.3742
      vertex 7.8079 0.531122 11.3742
    endloop
  endfacet
  facet normal 0 0 1
    outer loop
      vertex 7.34914 -0.38206 11.3742
      vertex 7.875 0 11.3742
      vertex 7.34914 0.38206 11.3742
    endloop
  endfacet
  facet normal 0 0 1
    outer loop
      vertex 7.875 0 11.3742
      vertex 7.34914 -0.38206 11.3742
      vertex 7.8079 -0.531122 11.3742
    endloop
  endfacet
  facet normal 0.906038 0 0.423197
    outer loop
      vertex 6.82328 0.76412 12.5
      vertex 7.34914 -0.38206 11.3742
      vertex 7.34914 0.38206 11.3742
    endloop
  endfacet
  facet normal 0.906038 0 0.423197
    outer loop
      vertex 7.34914 -0.38206 11.3742
      vertex 6.82328 0.76412 12.5
      vertex 6.82328 -0.76412 12.5
    endloop
  endfacet
  facet normal 0.279981 0.861693 0.423197
    outer loop
      vertex 7.77696 -0.776085 11.8934
      vertex 6.82328 -0.76412 12.5
      vertex 7.74081 -1.06224 12.5
    endloop
  endfacet
  facet normal 0.279981 0.861693 0.423197
    outer loop
      vertex 6.82328 -0.76412 12.5
      vertex 7.77696 -0.776085 11.8934
      vertex 7.34914 -0.38206 11.3742
    endloop
  endfacet
  facet normal 0 0 -1
    outer loop
      vertex 0.38206 7.34914 13.6258
      vertex 0.494474 7.85946 13.6258
      vertex 0.544757 7.84987 13.6258
    endloop
  endfacet
  facet normal 0 0 -1
    outer loop
      vertex -0.38206 7.34914 13.6258
      vertex 0.494474 7.85946 13.6258
      vertex 0.38206 7.34914 13.6258
    endloop
  endfacet
  facet normal 0 0 -1
    outer loop
      vertex 0.494474 7.85946 13.6258
      vertex -0.38206 7.34914 13.6258
      vertex -0.526992 7.79519 13.6258
    endloop
  endfacet
  facet normal 0.861693 0.279981 -0.423197
    outer loop
      vertex -0.76412 6.82328 12.5
      vertex -0.778319 7.77938 13.1036
      vertex -0.38206 7.34914 13.6258
    endloop
  endfacet
  facet normal 0.861693 0.279981 -0.423197
    outer loop
      vertex -0.778319 7.77938 13.1036
      vertex -0.76412 6.82328 12.5
      vertex -1.06884 7.7611 12.5
    endloop
  endfacet
  facet normal 0.861693 0.27998 -0.423198
    outer loop
      vertex -0.526992 7.79519 13.6258
      vertex -0.38206 7.34914 13.6258
      vertex -0.778319 7.77938 13.1036
    endloop
  endfacet
  facet normal 0 0 1
    outer loop
      vertex 0.494474 7.85946 11.3742
      vertex 0.38206 7.34914 11.3742
      vertex 0.544757 7.84987 11.3742
    endloop
  endfacet
  facet normal 0 0 1
    outer loop
      vertex 0.494474 7.85946 11.3742
      vertex -0.38206 7.34914 11.3742
      vertex 0.38206 7.34914 11.3742
    endloop
  endfacet
  facet normal 0 -0 1
    outer loop
      vertex -0.38206 7.34914 11.3742
      vertex 0.494474 7.85946 11.3742
      vertex -0.526992 7.79519 11.3742
    endloop
  endfacet
  facet normal 0.861693 0.279981 0.423197
    outer loop
      vertex -0.76412 6.82328 12.5
      vertex -0.778319 7.77938 11.8964
      vertex -1.06884 7.7611 12.5
    endloop
  endfacet
  facet normal 0.861693 0.279981 0.423197
    outer loop
      vertex -0.778319 7.77938 11.8964
      vertex -0.76412 6.82328 12.5
      vertex -0.38206 7.34914 11.3742
    endloop
  endfacet
  facet normal -0.861693 0.279981 -0.423197
    outer loop
      vertex 0.76412 6.82328 12.5
      vertex 0.798633 7.80144 13.0769
      vertex 1.06541 7.75055 12.5
    endloop
  endfacet
  facet normal -0.861693 0.279981 -0.423197
    outer loop
      vertex 0.798633 7.80144 13.0769
      vertex 0.76412 6.82328 12.5
      vertex 0.38206 7.34914 13.6258
    endloop
  endfacet
  facet normal 0 0.906037 -0.423198
    outer loop
      vertex 0.76412 6.82328 12.5
      vertex -0.38206 7.34914 13.6258
      vertex 0.38206 7.34914 13.6258
    endloop
  endfacet
  facet normal 0 0.906037 -0.423198
    outer loop
      vertex -0.38206 7.34914 13.6258
      vertex 0.76412 6.82328 12.5
      vertex -0.76412 6.82328 12.5
    endloop
  endfacet
  facet normal 0.861693 0.27998 0.423197
    outer loop
      vertex -0.38206 7.34914 11.3742
      vertex -0.526992 7.79519 11.3742
      vertex -0.778319 7.77938 11.8964
    endloop
  endfacet
  facet normal -0.861693 0.27998 -0.423198
    outer loop
      vertex 0.544757 7.84987 13.6258
      vertex 0.798633 7.80144 13.0769
      vertex 0.38206 7.34914 13.6258
    endloop
  endfacet
  facet normal -0.861693 0.27998 0.423198
    outer loop
      vertex 0.798633 7.80144 11.9231
      vertex 0.544757 7.84987 11.3742
      vertex 0.38206 7.34914 11.3742
    endloop
  endfacet
  facet normal 0 0.906038 0.423197
    outer loop
      vertex 0.38206 7.34914 11.3742
      vertex -0.76412 6.82328 12.5
      vertex 0.76412 6.82328 12.5
    endloop
  endfacet
  facet normal 0 0.906038 0.423197
    outer loop
      vertex -0.76412 6.82328 12.5
      vertex 0.38206 7.34914 11.3742
      vertex -0.38206 7.34914 11.3742
    endloop
  endfacet
  facet normal -0.861693 0.279981 0.423197
    outer loop
      vertex 0.76412 6.82328 12.5
      vertex 0.798633 7.80144 11.9231
      vertex 0.38206 7.34914 11.3742
    endloop
  endfacet
  facet normal -0.861693 0.279981 0.423197
    outer loop
      vertex 0.798633 7.80144 11.9231
      vertex 0.76412 6.82328 12.5
      vertex 1.06541 7.75055 12.5
    endloop
  endfacet
  facet normal -0.279981 0.861693 -0.423197
    outer loop
      vertex -6.82328 -0.76412 12.5
      vertex -7.8129 -0.809191 13.063
      vertex -7.34914 -0.38206 13.6258
    endloop
  endfacet
  facet normal -0.279981 0.861693 -0.423197
    outer loop
      vertex -7.8129 -0.809191 13.063
      vertex -6.82328 -0.76412 12.5
      vertex -7.8129 -0.986999 12.7009
    endloop
  endfacet
  facet normal -0.279981 0.861693 -0.423197
    outer loop
      vertex -7.8129 -0.986999 12.7009
      vertex -6.82328 -0.76412 12.5
      vertex -7.78952 -1.07807 12.5
    endloop
  endfacet
  facet normal -0.27998 0.861693 -0.423198
    outer loop
      vertex -7.8129 -0.532746 13.6258
      vertex -7.34914 -0.38206 13.6258
      vertex -7.8129 -0.809191 13.063
    endloop
  endfacet
  facet normal 0 0 1
    outer loop
      vertex -7.8129 0.532746 11.3742
      vertex -7.34914 -0.38206 11.3742
      vertex -7.34914 0.38206 11.3742
    endloop
  endfacet
  facet normal 0 0 1
    outer loop
      vertex -7.34914 -0.38206 11.3742
      vertex -7.8129 0.532746 11.3742
      vertex -7.8129 -0.532746 11.3742
    endloop
  endfacet
  facet normal -0.279981 0.861693 0.423197
    outer loop
      vertex -6.82328 -0.76412 12.5
      vertex -7.8129 -0.986999 12.2991
      vertex -7.78952 -1.07807 12.5
    endloop
  endfacet
  facet normal -0.279981 0.861693 0.423197
    outer loop
      vertex -6.82328 -0.76412 12.5
      vertex -7.8129 -0.809191 11.937
      vertex -7.8129 -0.986999 12.2991
    endloop
  endfacet
  facet normal -0.279981 0.861693 0.423197
    outer loop
      vertex -7.8129 -0.809191 11.937
      vertex -6.82328 -0.76412 12.5
      vertex -7.34914 -0.38206 11.3742
    endloop
  endfacet
  facet normal -0.279981 -0.861693 -0.423197
    outer loop
      vertex -6.82328 0.76412 12.5
      vertex -7.8129 0.809191 13.063
      vertex -7.8129 0.986999 12.7009
    endloop
  endfacet
  facet normal -0.279981 -0.861693 -0.423197
    outer loop
      vertex -6.82328 0.76412 12.5
      vertex -7.8129 0.986999 12.7009
      vertex -7.78952 1.07807 12.5
    endloop
  endfacet
  facet normal -0.279981 -0.861693 -0.423197
    outer loop
      vertex -7.8129 0.809191 13.063
      vertex -6.82328 0.76412 12.5
      vertex -7.34914 0.38206 13.6258
    endloop
  endfacet
  facet normal 0 0 -1
    outer loop
      vertex -7.8129 -0.532746 13.6258
      vertex -7.34914 0.38206 13.6258
      vertex -7.34914 -0.38206 13.6258
    endloop
  endfacet
  facet normal -0 0 -1
    outer loop
      vertex -7.34914 0.38206 13.6258
      vertex -7.8129 -0.532746 13.6258
      vertex -7.8129 0.532746 13.6258
    endloop
  endfacet
  facet normal -0.906037 0 -0.423198
    outer loop
      vertex -6.82328 0.76412 12.5
      vertex -7.34914 -0.38206 13.6258
      vertex -7.34914 0.38206 13.6258
    endloop
  endfacet
  facet normal -0.906037 0 -0.423198
    outer loop
      vertex -7.34914 -0.38206 13.6258
      vertex -6.82328 0.76412 12.5
      vertex -6.82328 -0.76412 12.5
    endloop
  endfacet
  facet normal -0.27998 0.861693 0.423198
    outer loop
      vertex -7.34914 -0.38206 11.3742
      vertex -7.8129 -0.532746 11.3742
      vertex -7.8129 -0.809191 11.937
    endloop
  endfacet
  facet normal -0.906038 0 0.423197
    outer loop
      vertex -7.34914 -0.38206 11.3742
      vertex -6.82328 0.76412 12.5
      vertex -7.34914 0.38206 11.3742
    endloop
  endfacet
  facet normal -0.906038 0 0.423197
    outer loop
      vertex -6.82328 0.76412 12.5
      vertex -7.34914 -0.38206 11.3742
      vertex -6.82328 -0.76412 12.5
    endloop
  endfacet
  facet normal -0.27998 -0.861693 -0.423198
    outer loop
      vertex -7.8129 0.809191 13.063
      vertex -7.34914 0.38206 13.6258
      vertex -7.8129 0.532746 13.6258
    endloop
  endfacet
  facet normal -0.27998 -0.861693 0.423198
    outer loop
      vertex -7.34914 0.38206 11.3742
      vertex -7.8129 0.809191 11.937
      vertex -7.8129 0.532746 11.3742
    endloop
  endfacet
  facet normal -0.279981 -0.861693 0.423197
    outer loop
      vertex -7.8129 0.986999 12.2991
      vertex -6.82328 0.76412 12.5
      vertex -7.78952 1.07807 12.5
    endloop
  endfacet
  facet normal -0.279981 -0.861693 0.423197
    outer loop
      vertex -7.8129 0.809191 11.937
      vertex -6.82328 0.76412 12.5
      vertex -7.8129 0.986999 12.2991
    endloop
  endfacet
  facet normal -0.279981 -0.861693 0.423197
    outer loop
      vertex -6.82328 0.76412 12.5
      vertex -7.8129 0.809191 11.937
      vertex -7.34914 0.38206 11.3742
    endloop
  endfacet
  facet normal -0.861693 -0.279981 -0.423197
    outer loop
      vertex 0.798633 -7.80144 13.0769
      vertex 0.76412 -6.82328 12.5
      vertex 1.06541 -7.75055 12.5
    endloop
  endfacet
  facet normal -0.861693 -0.279981 -0.423197
    outer loop
      vertex 0.76412 -6.82328 12.5
      vertex 0.798633 -7.80144 13.0769
      vertex 0.38206 -7.34914 13.6258
    endloop
  endfacet
  facet normal -0.861693 -0.27998 -0.423198
    outer loop
      vertex 0.798633 -7.80144 13.0769
      vertex 0.544757 -7.84987 13.6258
      vertex 0.38206 -7.34914 13.6258
    endloop
  endfacet
  facet normal -0.861693 -0.279981 0.423197
    outer loop
      vertex 0.798633 -7.80144 11.9231
      vertex 0.76412 -6.82328 12.5
      vertex 0.38206 -7.34914 11.3742
    endloop
  endfacet
  facet normal -0.861693 -0.279981 0.423197
    outer loop
      vertex 0.76412 -6.82328 12.5
      vertex 0.798633 -7.80144 11.9231
      vertex 1.06541 -7.75055 12.5
    endloop
  endfacet
  facet normal 0.861693 -0.279981 -0.423197
    outer loop
      vertex -0.778319 -7.77938 13.1036
      vertex -0.76412 -6.82328 12.5
      vertex -0.38206 -7.34914 13.6258
    endloop
  endfacet
  facet normal 0.861693 -0.279981 -0.423197
    outer loop
      vertex -0.76412 -6.82328 12.5
      vertex -0.778319 -7.77938 13.1036
      vertex -1.06884 -7.7611 12.5
    endloop
  endfacet
  facet normal 0 0 -1
    outer loop
      vertex 0.494474 -7.85946 13.6258
      vertex 0.38206 -7.34914 13.6258
      vertex 0.544757 -7.84987 13.6258
    endloop
  endfacet
  facet normal 0 0 -1
    outer loop
      vertex 0.494474 -7.85946 13.6258
      vertex -0.38206 -7.34914 13.6258
      vertex 0.38206 -7.34914 13.6258
    endloop
  endfacet
  facet normal 0 -0 -1
    outer loop
      vertex -0.38206 -7.34914 13.6258
      vertex 0.494474 -7.85946 13.6258
      vertex -0.526992 -7.79519 13.6258
    endloop
  endfacet
  facet normal 0 -0.906037 -0.423198
    outer loop
      vertex -0.76412 -6.82328 12.5
      vertex 0.38206 -7.34914 13.6258
      vertex -0.38206 -7.34914 13.6258
    endloop
  endfacet
  facet normal 0 -0.906037 -0.423198
    outer loop
      vertex 0.38206 -7.34914 13.6258
      vertex -0.76412 -6.82328 12.5
      vertex 0.76412 -6.82328 12.5
    endloop
  endfacet
  facet normal -0.861693 -0.27998 0.423198
    outer loop
      vertex 0.544757 -7.84987 11.3742
      vertex 0.798633 -7.80144 11.9231
      vertex 0.38206 -7.34914 11.3742
    endloop
  endfacet
  facet normal 0.861693 -0.27998 -0.423198
    outer loop
      vertex -0.38206 -7.34914 13.6258
      vertex -0.526992 -7.79519 13.6258
      vertex -0.778319 -7.77938 13.1036
    endloop
  endfacet
  facet normal 0.861693 -0.27998 0.423197
    outer loop
      vertex -0.526992 -7.79519 11.3742
      vertex -0.38206 -7.34914 11.3742
      vertex -0.778319 -7.77938 11.8964
    endloop
  endfacet
  facet normal 0 0 1
    outer loop
      vertex 0.38206 -7.34914 11.3742
      vertex 0.494474 -7.85946 11.3742
      vertex 0.544757 -7.84987 11.3742
    endloop
  endfacet
  facet normal -0 0 1
    outer loop
      vertex -0.38206 -7.34914 11.3742
      vertex 0.494474 -7.85946 11.3742
      vertex 0.38206 -7.34914 11.3742
    endloop
  endfacet
  facet normal 0 0 1
    outer loop
      vertex 0.494474 -7.85946 11.3742
      vertex -0.38206 -7.34914 11.3742
      vertex -0.526992 -7.79519 11.3742
    endloop
  endfacet
  facet normal 0 -0.906038 0.423197
    outer loop
      vertex -0.38206 -7.34914 11.3742
      vertex 0.76412 -6.82328 12.5
      vertex -0.76412 -6.82328 12.5
    endloop
  endfacet
  facet normal 0 -0.906038 0.423197
    outer loop
      vertex 0.76412 -6.82328 12.5
      vertex -0.38206 -7.34914 11.3742
      vertex 0.38206 -7.34914 11.3742
    endloop
  endfacet
  facet normal 0.861693 -0.279981 0.423197
    outer loop
      vertex -0.778319 -7.77938 11.8964
      vertex -0.76412 -6.82328 12.5
      vertex -1.06884 -7.7611 12.5
    endloop
  endfacet
  facet normal 0.861693 -0.279981 0.423197
    outer loop
      vertex -0.76412 -6.82328 12.5
      vertex -0.778319 -7.77938 11.8964
      vertex -0.38206 -7.34914 11.3742
    endloop
  endfacet
  facet normal 0.992115 0.125333 0
    outer loop
      vertex 7.62759 1.95843 30
      vertex 7.74081 1.06224 12.5
      vertex 7.62759 1.95843 0
    endloop
  endfacet
  facet normal 0.992115 0.125334 -3.8691e-008
    outer loop
      vertex 7.62759 1.95843 30
      vertex 7.77696 0.776085 13.1066
      vertex 7.74081 1.06224 12.5
    endloop
  endfacet
  facet normal 0.992115 0.125334 -1.85762e-008
    outer loop
      vertex 7.62759 1.95843 30
      vertex 7.8079 0.531122 13.6258
      vertex 7.77696 0.776085 13.1066
    endloop
  endfacet
  facet normal 0.992115 0.125333 8.224e-009
    outer loop
      vertex 7.875 0 30
      vertex 7.8079 0.531122 13.6258
      vertex 7.62759 1.95843 30
    endloop
  endfacet
  facet normal 0.992115 0.125333 0
    outer loop
      vertex 7.8079 0.531122 13.6258
      vertex 7.875 0 30
      vertex 7.875 0 13.6258
    endloop
  endfacet
  facet normal 0.992115 0.125334 5.21257e-008
    outer loop
      vertex 7.77696 0.776085 11.8934
      vertex 7.62759 1.95843 0
      vertex 7.74081 1.06224 12.5
    endloop
  endfacet
  facet normal 0.992115 0.125334 2.50264e-008
    outer loop
      vertex 7.8079 0.531122 11.3742
      vertex 7.62759 1.95843 0
      vertex 7.77696 0.776085 11.8934
    endloop
  endfacet
  facet normal 0.992115 0.125333 -0
    outer loop
      vertex 7.875 0 0
      vertex 7.8079 0.531122 11.3742
      vertex 7.875 0 11.3742
    endloop
  endfacet
  facet normal 0.992115 0.125333 -1.18392e-008
    outer loop
      vertex 7.8079 0.531122 11.3742
      vertex 7.875 0 0
      vertex 7.62759 1.95843 0
    endloop
  endfacet
  facet normal -1 0 0
    outer loop
      vertex -7.8129 0.986999 0
      vertex -7.8129 0.809191 11.937
      vertex -7.8129 0.986999 12.2991
    endloop
  endfacet
  facet normal -1 0 0
    outer loop
      vertex -7.8129 0.986999 0
      vertex -7.8129 0.532746 11.3742
      vertex -7.8129 0.809191 11.937
    endloop
  endfacet
  facet normal -1 0 0
    outer loop
      vertex -7.8129 0.986999 0
      vertex -7.8129 -0.532746 11.3742
      vertex -7.8129 0.532746 11.3742
    endloop
  endfacet
  facet normal -1 0 0
    outer loop
      vertex -7.8129 -0.986999 0
      vertex -7.8129 -0.532746 11.3742
      vertex -7.8129 0.986999 0
    endloop
  endfacet
  facet normal -1 -0 0
    outer loop
      vertex -7.8129 -0.532746 11.3742
      vertex -7.8129 -0.986999 0
      vertex -7.8129 -0.809191 11.937
    endloop
  endfacet
  facet normal -1 -0 0
    outer loop
      vertex -7.8129 -0.809191 11.937
      vertex -7.8129 -0.986999 0
      vertex -7.8129 -0.986999 12.2991
    endloop
  endfacet
  facet normal -1 0 0
    outer loop
      vertex -7.8129 0.809191 13.063
      vertex -7.8129 0.986999 30
      vertex -7.8129 0.986999 12.7009
    endloop
  endfacet
  facet normal -1 0 0
    outer loop
      vertex -7.8129 0.532746 13.6258
      vertex -7.8129 0.986999 30
      vertex -7.8129 0.809191 13.063
    endloop
  endfacet
  facet normal -1 0 0
    outer loop
      vertex -7.8129 -0.532746 13.6258
      vertex -7.8129 0.986999 30
      vertex -7.8129 0.532746 13.6258
    endloop
  endfacet
  facet normal -1 0 0
    outer loop
      vertex -7.8129 -0.986999 30
      vertex -7.8129 -0.532746 13.6258
      vertex -7.8129 -0.809191 13.063
    endloop
  endfacet
  facet normal -1 0 0
    outer loop
      vertex -7.8129 -0.986999 30
      vertex -7.8129 -0.809191 13.063
      vertex -7.8129 -0.986999 12.7009
    endloop
  endfacet
  facet normal -1 0 0
    outer loop
      vertex -7.8129 -0.532746 13.6258
      vertex -7.8129 -0.986999 30
      vertex -7.8129 0.986999 30
    endloop
  endfacet
  facet normal -0.0627905 0.998027 0
    outer loop
      vertex 0.494474 7.85946 11.3742
      vertex 0.494474 7.85946 0
      vertex -0.526992 7.79519 11.3742
    endloop
  endfacet
  facet normal -0.0627905 0.998027 0
    outer loop
      vertex -0.526992 7.79519 13.6258
      vertex 0.494474 7.85946 30
      vertex 0.494474 7.85946 13.6258
    endloop
  endfacet
  facet normal -0.0627904 0.998027 -6.66545e-009
    outer loop
      vertex 0.494474 7.85946 30
      vertex -0.526992 7.79519 13.6258
      vertex -1.47563 7.73551 30
    endloop
  endfacet
  facet normal -0.0627897 0.998027 3.42637e-008
    outer loop
      vertex -0.778319 7.77938 13.1036
      vertex -1.47563 7.73551 30
      vertex -0.526992 7.79519 13.6258
    endloop
  endfacet
  facet normal -0.062791 0.998027 -2.04588e-008
    outer loop
      vertex -1.06884 7.7611 12.5
      vertex -1.47563 7.73551 30
      vertex -0.778319 7.77938 13.1036
    endloop
  endfacet
  facet normal -0.0627904 0.998027 9.59554e-009
    outer loop
      vertex -1.47563 7.73551 0
      vertex -0.526992 7.79519 11.3742
      vertex 0.494474 7.85946 0
    endloop
  endfacet
  facet normal -0.0627898 0.998027 -4.71011e-008
    outer loop
      vertex -0.526992 7.79519 11.3742
      vertex -1.47563 7.73551 0
      vertex -0.778319 7.77938 11.8964
    endloop
  endfacet
  facet normal -0.0627902 0.998027 0
    outer loop
      vertex -1.06884 7.7611 12.5
      vertex -1.47563 7.73551 0
      vertex -1.47563 7.73551 30
    endloop
  endfacet
  facet normal -0.062791 0.998027 2.81241e-008
    outer loop
      vertex -0.778319 7.77938 11.8964
      vertex -1.47563 7.73551 0
      vertex -1.06884 7.7611 12.5
    endloop
  endfacet
  facet normal 0.187385 -0.982286 0
    outer loop
      vertex 0.494474 -7.85946 11.3742
      vertex 0.494474 -7.85946 0
      vertex 0.544757 -7.84987 11.3742
    endloop
  endfacet
  facet normal 0.187385 -0.982286 0
    outer loop
      vertex 0.544757 -7.84987 13.6258
      vertex 0.494474 -7.85946 30
      vertex 0.494474 -7.85946 13.6258
    endloop
  endfacet
  facet normal 0.187381 -0.982287 -1.33697e-008
    outer loop
      vertex 0.494474 -7.85946 30
      vertex 0.544757 -7.84987 13.6258
      vertex 2.43351 -7.48957 30
    endloop
  endfacet
  facet normal 0.18738 -0.982288 1.41364e-007
    outer loop
      vertex 0.798633 -7.80144 13.0769
      vertex 2.43351 -7.48957 30
      vertex 0.544757 -7.84987 13.6258
    endloop
  endfacet
  facet normal 0.187382 -0.982287 -6.01719e-008
    outer loop
      vertex 1.06541 -7.75055 12.5
      vertex 2.43351 -7.48957 30
      vertex 0.798633 -7.80144 13.0769
    endloop
  endfacet
  facet normal 0.187381 -0.982287 1.9247e-008
    outer loop
      vertex 2.43351 -7.48957 0
      vertex 0.544757 -7.84987 11.3742
      vertex 0.494474 -7.85946 0
    endloop
  endfacet
  facet normal 0.18738 -0.982287 -1.87089e-007
    outer loop
      vertex 0.544757 -7.84987 11.3742
      vertex 2.43351 -7.48957 0
      vertex 0.798633 -7.80144 11.9231
    endloop
  endfacet
  facet normal 0.187382 -0.982287 7.96346e-008
    outer loop
      vertex 0.798633 -7.80144 11.9231
      vertex 2.43351 -7.48957 0
      vertex 1.06541 -7.75055 12.5
    endloop
  endfacet
  facet normal 0.187381 -0.982287 0
    outer loop
      vertex 1.06541 -7.75055 12.5
      vertex 2.43351 -7.48957 0
      vertex 2.43351 -7.48957 30
    endloop
  endfacet
  facet normal 0.425779 -0.904827 0
    outer loop
      vertex 2.43351 -7.48957 0
      vertex 4.21964 -6.64908 30
      vertex 2.43351 -7.48957 30
    endloop
  endfacet
  facet normal 0.425779 -0.904827 0
    outer loop
      vertex 4.21964 -6.64908 30
      vertex 2.43351 -7.48957 0
      vertex 4.21964 -6.64908 0
    endloop
  endfacet
  facet normal 0.637424 0.770513 -0
    outer loop
      vertex 5.74063 5.39081 0
      vertex 4.21964 6.64908 30
      vertex 5.74063 5.39081 30
    endloop
  endfacet
  facet normal 0.637424 0.770513 0
    outer loop
      vertex 4.21964 6.64908 30
      vertex 5.74063 5.39081 0
      vertex 4.21964 6.64908 0
    endloop
  endfacet
  facet normal 0.425779 0.904827 -0
    outer loop
      vertex 4.21964 6.64908 0
      vertex 2.43351 7.48957 30
      vertex 4.21964 6.64908 30
    endloop
  endfacet
  facet normal 0.425779 0.904827 0
    outer loop
      vertex 2.43351 7.48957 30
      vertex 4.21964 6.64908 0
      vertex 2.43351 7.48957 0
    endloop
  endfacet
  facet normal -0.728969 0.684547 0
    outer loop
      vertex -6.37101 4.62881 0
      vertex -5.01971 6.06779 30
      vertex -5.01971 6.06779 0
    endloop
  endfacet
  facet normal -0.728969 0.684547 0
    outer loop
      vertex -5.01971 6.06779 30
      vertex -6.37101 4.62881 0
      vertex -6.37101 4.62881 30
    endloop
  endfacet
  facet normal -0.876307 0.481754 0
    outer loop
      vertex -7.32199 2.89898 0
      vertex -6.37101 4.62881 30
      vertex -6.37101 4.62881 0
    endloop
  endfacet
  facet normal -0.876307 0.481754 0
    outer loop
      vertex -6.37101 4.62881 30
      vertex -7.32199 2.89898 0
      vertex -7.32199 2.89898 30
    endloop
  endfacet
  facet normal -0.535827 0.844328 0
    outer loop
      vertex -3.35301 7.12551 0
      vertex -5.01971 6.06779 30
      vertex -3.35301 7.12551 30
    endloop
  endfacet
  facet normal -0.535827 0.844328 0
    outer loop
      vertex -5.01971 6.06779 30
      vertex -3.35301 7.12551 0
      vertex -5.01971 6.06779 0
    endloop
  endfacet
  facet normal 0 0 -1
    outer loop
      vertex 7.62759 -1.95843 0
      vertex 7.62759 1.95843 0
      vertex 7.875 0 0
    endloop
  endfacet
  facet normal 0 0 -1
    outer loop
      vertex 6.90091 -3.79381 0
      vertex 7.62759 1.95843 0
      vertex 7.62759 -1.95843 0
    endloop
  endfacet
  facet normal 0 0 -1
    outer loop
      vertex 6.90091 -3.79381 0
      vertex 6.90091 3.79381 0
      vertex 7.62759 1.95843 0
    endloop
  endfacet
  facet normal 0 0 -1
    outer loop
      vertex 5.74063 -5.39081 0
      vertex 6.90091 3.79381 0
      vertex 6.90091 -3.79381 0
    endloop
  endfacet
  facet normal 0 0 -1
    outer loop
      vertex 5.74063 -5.39081 0
      vertex 5.74063 5.39081 0
      vertex 6.90091 3.79381 0
    endloop
  endfacet
  facet normal 0 0 -1
    outer loop
      vertex 4.21964 -6.64908 0
      vertex 5.74063 5.39081 0
      vertex 5.74063 -5.39081 0
    endloop
  endfacet
  facet normal 0 0 -1
    outer loop
      vertex 4.21964 -6.64908 0
      vertex 4.21964 6.64908 0
      vertex 5.74063 5.39081 0
    endloop
  endfacet
  facet normal 0 0 -1
    outer loop
      vertex 2.43351 -7.48957 0
      vertex 4.21964 6.64908 0
      vertex 4.21964 -6.64908 0
    endloop
  endfacet
  facet normal 0 0 -1
    outer loop
      vertex 2.43351 -7.48957 0
      vertex 2.43351 7.48957 0
      vertex 4.21964 6.64908 0
    endloop
  endfacet
  facet normal 0 0 -1
    outer loop
      vertex 0.494474 -7.85946 0
      vertex 2.43351 7.48957 0
      vertex 2.43351 -7.48957 0
    endloop
  endfacet
  facet normal 0 0 -1
    outer loop
      vertex 0.494474 -7.85946 0
      vertex 0.494474 7.85946 0
      vertex 2.43351 7.48957 0
    endloop
  endfacet
  facet normal 0 0 -1
    outer loop
      vertex -1.47563 -7.73551 0
      vertex 0.494474 7.85946 0
      vertex 0.494474 -7.85946 0
    endloop
  endfacet
  facet normal 0 0 -1
    outer loop
      vertex -1.47563 -7.73551 0
      vertex -1.47563 7.73551 0
      vertex 0.494474 7.85946 0
    endloop
  endfacet
  facet normal 0 0 -1
    outer loop
      vertex -3.35301 -7.12551 0
      vertex -1.47563 7.73551 0
      vertex -1.47563 -7.73551 0
    endloop
  endfacet
  facet normal 0 0 -1
    outer loop
      vertex -3.35301 -7.12551 0
      vertex -3.35301 7.12551 0
      vertex -1.47563 7.73551 0
    endloop
  endfacet
  facet normal 0 0 -1
    outer loop
      vertex -5.01971 -6.06779 0
      vertex -3.35301 7.12551 0
      vertex -3.35301 -7.12551 0
    endloop
  endfacet
  facet normal 0 0 -1
    outer loop
      vertex -5.01971 -6.06779 0
      vertex -5.01971 6.06779 0
      vertex -3.35301 7.12551 0
    endloop
  endfacet
  facet normal 0 0 -1
    outer loop
      vertex -6.37101 -4.62881 0
      vertex -5.01971 6.06779 0
      vertex -5.01971 -6.06779 0
    endloop
  endfacet
  facet normal 0 0 -1
    outer loop
      vertex -6.37101 -4.62881 0
      vertex -6.37101 4.62881 0
      vertex -5.01971 6.06779 0
    endloop
  endfacet
  facet normal 0 0 -1
    outer loop
      vertex -7.32199 -2.89898 0
      vertex -6.37101 4.62881 0
      vertex -6.37101 -4.62881 0
    endloop
  endfacet
  facet normal 0 0 -1
    outer loop
      vertex -7.32199 -2.89898 0
      vertex -7.32199 2.89898 0
      vertex -6.37101 4.62881 0
    endloop
  endfacet
  facet normal 0 0 -1
    outer loop
      vertex -7.8129 -0.986999 0
      vertex -7.32199 2.89898 0
      vertex -7.32199 -2.89898 0
    endloop
  endfacet
  facet normal 0 0 -1
    outer loop
      vertex -7.32199 2.89898 0
      vertex -7.8129 -0.986999 0
      vertex -7.8129 0.986999 0
    endloop
  endfacet
  facet normal 0.809017 0.587785 0
    outer loop
      vertex 6.90091 3.79381 30
      vertex 5.74063 5.39081 0
      vertex 5.74063 5.39081 30
    endloop
  endfacet
  facet normal 0.809017 0.587785 0
    outer loop
      vertex 5.74063 5.39081 0
      vertex 6.90091 3.79381 30
      vertex 6.90091 3.79381 0
    endloop
  endfacet
  facet normal 0.929776 0.368125 0
    outer loop
      vertex 7.62759 1.95843 30
      vertex 6.90091 3.79381 0
      vertex 6.90091 3.79381 30
    endloop
  endfacet
  facet normal 0.929776 0.368125 0
    outer loop
      vertex 6.90091 3.79381 0
      vertex 7.62759 1.95843 30
      vertex 7.62759 1.95843 0
    endloop
  endfacet
  facet normal 0.187381 0.982287 -1.33697e-008
    outer loop
      vertex 2.43351 7.48957 30
      vertex 0.544757 7.84987 13.6258
      vertex 0.494474 7.85946 30
    endloop
  endfacet
  facet normal 0.18738 0.982288 1.41364e-007
    outer loop
      vertex 2.43351 7.48957 30
      vertex 0.798633 7.80144 13.0769
      vertex 0.544757 7.84987 13.6258
    endloop
  endfacet
  facet normal 0.187382 0.982287 -6.01719e-008
    outer loop
      vertex 2.43351 7.48957 30
      vertex 1.06541 7.75055 12.5
      vertex 0.798633 7.80144 13.0769
    endloop
  endfacet
  facet normal 0.187381 0.982287 -0
    outer loop
      vertex 2.43351 7.48957 0
      vertex 1.06541 7.75055 12.5
      vertex 2.43351 7.48957 30
    endloop
  endfacet
  facet normal 0.187382 0.982287 7.96346e-008
    outer loop
      vertex 2.43351 7.48957 0
      vertex 0.798633 7.80144 11.9231
      vertex 1.06541 7.75055 12.5
    endloop
  endfacet
  facet normal 0.18738 0.982287 -1.87089e-007
    outer loop
      vertex 2.43351 7.48957 0
      vertex 0.544757 7.84987 11.3742
      vertex 0.798633 7.80144 11.9231
    endloop
  endfacet
  facet normal 0.187381 0.982287 1.9247e-008
    outer loop
      vertex 0.494474 7.85946 0
      vertex 0.544757 7.84987 11.3742
      vertex 2.43351 7.48957 0
    endloop
  endfacet
  facet normal 0.187385 0.982286 0
    outer loop
      vertex 0.544757 7.84987 11.3742
      vertex 0.494474 7.85946 0
      vertex 0.494474 7.85946 11.3742
    endloop
  endfacet
  facet normal 0.187385 0.982286 0
    outer loop
      vertex 0.494474 7.85946 30
      vertex 0.544757 7.84987 13.6258
      vertex 0.494474 7.85946 13.6258
    endloop
  endfacet
  facet normal -0.968583 0.24869 0
    outer loop
      vertex -7.32199 2.89898 0
      vertex -7.78952 1.07807 12.5
      vertex -7.32199 2.89898 30
    endloop
  endfacet
  facet normal -0.968583 0.24869 0
    outer loop
      vertex -7.8129 0.986999 12.2991
      vertex -7.32199 2.89898 0
      vertex -7.8129 0.986999 0
    endloop
  endfacet
  facet normal -0.968583 0.248691 1.97584e-007
    outer loop
      vertex -7.32199 2.89898 0
      vertex -7.8129 0.986999 12.2991
      vertex -7.78952 1.07807 12.5
    endloop
  endfacet
  facet normal -0.968583 0.248691 -1.51671e-007
    outer loop
      vertex -7.8129 0.986999 12.7009
      vertex -7.32199 2.89898 30
      vertex -7.78952 1.07807 12.5
    endloop
  endfacet
  facet normal -0.968583 0.24869 0
    outer loop
      vertex -7.32199 2.89898 30
      vertex -7.8129 0.986999 12.7009
      vertex -7.8129 0.986999 30
    endloop
  endfacet
  facet normal 0 0 -1
    outer loop
      vertex 11.5 -11.5 30
      vertex 7.875 0 30
      vertex 11.5 11.5 30
    endloop
  endfacet
  facet normal 0 0 -1
    outer loop
      vertex 11.5 -11.5 30
      vertex 7.62759 -1.95843 30
      vertex 7.875 0 30
    endloop
  endfacet
  facet normal 0 0 -1
    outer loop
      vertex 11.5 -11.5 30
      vertex 6.90091 -3.79381 30
      vertex 7.62759 -1.95843 30
    endloop
  endfacet
  facet normal 0 0 -1
    outer loop
      vertex 11.5 -11.5 30
      vertex 5.74063 -5.39081 30
      vertex 6.90091 -3.79381 30
    endloop
  endfacet
  facet normal 0 0 -1
    outer loop
      vertex 11.5 -11.5 30
      vertex 4.21964 -6.64908 30
      vertex 5.74063 -5.39081 30
    endloop
  endfacet
  facet normal 0 0 -1
    outer loop
      vertex 11.5 -11.5 30
      vertex 2.43351 -7.48957 30
      vertex 4.21964 -6.64908 30
    endloop
  endfacet
  facet normal 0 0 -1
    outer loop
      vertex 11.5 -11.5 30
      vertex 0.494474 -7.85946 30
      vertex 2.43351 -7.48957 30
    endloop
  endfacet
  facet normal 0 0 -1
    outer loop
      vertex -11.5 -11.5 30
      vertex 0.494474 -7.85946 30
      vertex 11.5 -11.5 30
    endloop
  endfacet
  facet normal -0 0 -1
    outer loop
      vertex -7.8129 -0.986999 30
      vertex -11.5 -11.5 30
      vertex -7.8129 0.986999 30
    endloop
  endfacet
  facet normal -0 0 -1
    outer loop
      vertex -7.32199 -2.89898 30
      vertex -11.5 -11.5 30
      vertex -7.8129 -0.986999 30
    endloop
  endfacet
  facet normal -0 0 -1
    outer loop
      vertex -6.37101 -4.62881 30
      vertex -11.5 -11.5 30
      vertex -7.32199 -2.89898 30
    endloop
  endfacet
  facet normal -0 0 -1
    outer loop
      vertex -5.01971 -6.06779 30
      vertex -11.5 -11.5 30
      vertex -6.37101 -4.62881 30
    endloop
  endfacet
  facet normal -0 0 -1
    outer loop
      vertex -3.35301 -7.12551 30
      vertex -11.5 -11.5 30
      vertex -5.01971 -6.06779 30
    endloop
  endfacet
  facet normal -0 0 -1
    outer loop
      vertex -1.47563 -7.73551 30
      vertex -11.5 -11.5 30
      vertex -3.35301 -7.12551 30
    endloop
  endfacet
  facet normal -0 0 -1
    outer loop
      vertex 0.494474 -7.85946 30
      vertex -11.5 -11.5 30
      vertex -1.47563 -7.73551 30
    endloop
  endfacet
  facet normal 0 0 -1
    outer loop
      vertex 7.62759 1.95843 30
      vertex 11.5 11.5 30
      vertex 7.875 0 30
    endloop
  endfacet
  facet normal 0 0 -1
    outer loop
      vertex 6.90091 3.79381 30
      vertex 11.5 11.5 30
      vertex 7.62759 1.95843 30
    endloop
  endfacet
  facet normal 0 0 -1
    outer loop
      vertex 5.74063 5.39081 30
      vertex 11.5 11.5 30
      vertex 6.90091 3.79381 30
    endloop
  endfacet
  facet normal 0 0 -1
    outer loop
      vertex 4.21964 6.64908 30
      vertex 11.5 11.5 30
      vertex 5.74063 5.39081 30
    endloop
  endfacet
  facet normal 0 0 -1
    outer loop
      vertex 2.43351 7.48957 30
      vertex 11.5 11.5 30
      vertex 4.21964 6.64908 30
    endloop
  endfacet
  facet normal 0 0 -1
    outer loop
      vertex 0.494474 7.85946 30
      vertex 11.5 11.5 30
      vertex 2.43351 7.48957 30
    endloop
  endfacet
  facet normal 0 0 -1
    outer loop
      vertex -11.5 11.5 30
      vertex 0.494474 7.85946 30
      vertex -1.47563 7.73551 30
    endloop
  endfacet
  facet normal 0 0 -1
    outer loop
      vertex -11.5 11.5 30
      vertex -7.8129 0.986999 30
      vertex -11.5 -11.5 30
    endloop
  endfacet
  facet normal 0 0 -1
    outer loop
      vertex 0.494474 7.85946 30
      vertex -11.5 11.5 30
      vertex 11.5 11.5 30
    endloop
  endfacet
  facet normal 0 0 -1
    outer loop
      vertex -3.35301 7.12551 30
      vertex -11.5 11.5 30
      vertex -1.47563 7.73551 30
    endloop
  endfacet
  facet normal 0 0 -1
    outer loop
      vertex -5.01971 6.06779 30
      vertex -11.5 11.5 30
      vertex -3.35301 7.12551 30
    endloop
  endfacet
  facet normal 0 0 -1
    outer loop
      vertex -6.37101 4.62881 30
      vertex -11.5 11.5 30
      vertex -5.01971 6.06779 30
    endloop
  endfacet
  facet normal 0 0 -1
    outer loop
      vertex -7.32199 2.89898 30
      vertex -11.5 11.5 30
      vertex -6.37101 4.62881 30
    endloop
  endfacet
  facet normal 0 0 -1
    outer loop
      vertex -7.8129 0.986999 30
      vertex -11.5 11.5 30
      vertex -7.32199 2.89898 30
    endloop
  endfacet
  facet normal -0.309017 0.951056 0
    outer loop
      vertex -1.47563 7.73551 0
      vertex -3.35301 7.12551 30
      vertex -1.47563 7.73551 30
    endloop
  endfacet
  facet normal -0.309017 0.951056 0
    outer loop
      vertex -3.35301 7.12551 30
      vertex -1.47563 7.73551 0
      vertex -3.35301 7.12551 0
    endloop
  endfacet
  facet normal -0.968583 -0.24869 0
    outer loop
      vertex -7.32199 -2.89898 0
      vertex -7.8129 -0.986999 12.2991
      vertex -7.8129 -0.986999 0
    endloop
  endfacet
  facet normal -0.968583 -0.248691 1.97584e-007
    outer loop
      vertex -7.8129 -0.986999 12.2991
      vertex -7.32199 -2.89898 0
      vertex -7.78952 -1.07807 12.5
    endloop
  endfacet
  facet normal -0.968583 -0.248691 -1.51671e-007
    outer loop
      vertex -7.32199 -2.89898 30
      vertex -7.8129 -0.986999 12.7009
      vertex -7.78952 -1.07807 12.5
    endloop
  endfacet
  facet normal -0.968583 -0.24869 -0
    outer loop
      vertex -7.32199 -2.89898 30
      vertex -7.78952 -1.07807 12.5
      vertex -7.32199 -2.89898 0
    endloop
  endfacet
  facet normal -0.968583 -0.24869 0
    outer loop
      vertex -7.8129 -0.986999 12.7009
      vertex -7.32199 -2.89898 30
      vertex -7.8129 -0.986999 30
    endloop
  endfacet
  facet normal 0.929776 -0.368125 0
    outer loop
      vertex 6.90091 -3.79381 30
      vertex 7.62759 -1.95843 0
      vertex 7.62759 -1.95843 30
    endloop
  endfacet
  facet normal 0.929776 -0.368125 0
    outer loop
      vertex 7.62759 -1.95843 0
      vertex 6.90091 -3.79381 30
      vertex 6.90091 -3.79381 0
    endloop
  endfacet
  facet normal -0.535827 -0.844328 0
    outer loop
      vertex -5.01971 -6.06779 0
      vertex -3.35301 -7.12551 30
      vertex -5.01971 -6.06779 30
    endloop
  endfacet
  facet normal -0.535827 -0.844328 -0
    outer loop
      vertex -3.35301 -7.12551 30
      vertex -5.01971 -6.06779 0
      vertex -3.35301 -7.12551 0
    endloop
  endfacet
  facet normal -0.876307 -0.481754 0
    outer loop
      vertex -6.37101 -4.62881 0
      vertex -7.32199 -2.89898 30
      vertex -7.32199 -2.89898 0
    endloop
  endfacet
  facet normal -0.876307 -0.481754 0
    outer loop
      vertex -7.32199 -2.89898 30
      vertex -6.37101 -4.62881 0
      vertex -6.37101 -4.62881 30
    endloop
  endfacet
  facet normal -0.728969 -0.684547 0
    outer loop
      vertex -5.01971 -6.06779 0
      vertex -6.37101 -4.62881 30
      vertex -6.37101 -4.62881 0
    endloop
  endfacet
  facet normal -0.728969 -0.684547 0
    outer loop
      vertex -6.37101 -4.62881 30
      vertex -5.01971 -6.06779 0
      vertex -5.01971 -6.06779 30
    endloop
  endfacet
  facet normal 0.637424 -0.770513 0
    outer loop
      vertex 4.21964 -6.64908 0
      vertex 5.74063 -5.39081 30
      vertex 4.21964 -6.64908 30
    endloop
  endfacet
  facet normal 0.637424 -0.770513 0
    outer loop
      vertex 5.74063 -5.39081 30
      vertex 4.21964 -6.64908 0
      vertex 5.74063 -5.39081 0
    endloop
  endfacet
  facet normal 0.992115 -0.125333 0
    outer loop
      vertex 7.875 0 30
      vertex 7.8079 -0.531122 13.6258
      vertex 7.875 0 13.6258
    endloop
  endfacet
  facet normal 0.992115 -0.125333 8.224e-009
    outer loop
      vertex 7.62759 -1.95843 30
      vertex 7.8079 -0.531122 13.6258
      vertex 7.875 0 30
    endloop
  endfacet
  facet normal 0.992115 -0.125334 -1.85762e-008
    outer loop
      vertex 7.8079 -0.531122 13.6258
      vertex 7.62759 -1.95843 30
      vertex 7.77696 -0.776085 13.1066
    endloop
  endfacet
  facet normal 0.992115 -0.125334 -3.8691e-008
    outer loop
      vertex 7.77696 -0.776085 13.1066
      vertex 7.62759 -1.95843 30
      vertex 7.74081 -1.06224 12.5
    endloop
  endfacet
  facet normal 0.992115 -0.125333 0
    outer loop
      vertex 7.8079 -0.531122 11.3742
      vertex 7.875 0 0
      vertex 7.875 0 11.3742
    endloop
  endfacet
  facet normal 0.992115 -0.125334 2.50264e-008
    outer loop
      vertex 7.62759 -1.95843 0
      vertex 7.8079 -0.531122 11.3742
      vertex 7.77696 -0.776085 11.8934
    endloop
  endfacet
  facet normal 0.992115 -0.125334 5.21257e-008
    outer loop
      vertex 7.62759 -1.95843 0
      vertex 7.77696 -0.776085 11.8934
      vertex 7.74081 -1.06224 12.5
    endloop
  endfacet
  facet normal 0.992115 -0.125333 -1.18392e-008
    outer loop
      vertex 7.8079 -0.531122 11.3742
      vertex 7.62759 -1.95843 0
      vertex 7.875 0 0
    endloop
  endfacet
  facet normal 0.992115 -0.125333 0
    outer loop
      vertex 7.62759 -1.95843 0
      vertex 7.74081 -1.06224 12.5
      vertex 7.62759 -1.95843 30
    endloop
  endfacet
  facet normal -0.0627904 -0.998027 -6.66545e-009
    outer loop
      vertex -1.47563 -7.73551 30
      vertex -0.526992 -7.79519 13.6258
      vertex 0.494474 -7.85946 30
    endloop
  endfacet
  facet normal -0.0627897 -0.998027 3.42637e-008
    outer loop
      vertex -1.47563 -7.73551 30
      vertex -0.778319 -7.77938 13.1036
      vertex -0.526992 -7.79519 13.6258
    endloop
  endfacet
  facet normal -0.062791 -0.998027 -2.04588e-008
    outer loop
      vertex -1.47563 -7.73551 30
      vertex -1.06884 -7.7611 12.5
      vertex -0.778319 -7.77938 13.1036
    endloop
  endfacet
  facet normal -0.0627902 -0.998027 0
    outer loop
      vertex -1.47563 -7.73551 0
      vertex -1.06884 -7.7611 12.5
      vertex -1.47563 -7.73551 30
    endloop
  endfacet
  facet normal -0.062791 -0.998027 2.81241e-008
    outer loop
      vertex -1.47563 -7.73551 0
      vertex -0.778319 -7.77938 11.8964
      vertex -1.06884 -7.7611 12.5
    endloop
  endfacet
  facet normal -0.0627898 -0.998027 -4.71011e-008
    outer loop
      vertex -1.47563 -7.73551 0
      vertex -0.526992 -7.79519 11.3742
      vertex -0.778319 -7.77938 11.8964
    endloop
  endfacet
  facet normal -0.0627904 -0.998027 9.59554e-009
    outer loop
      vertex 0.494474 -7.85946 0
      vertex -0.526992 -7.79519 11.3742
      vertex -1.47563 -7.73551 0
    endloop
  endfacet
  facet normal -0.0627905 -0.998027 0
    outer loop
      vertex -0.526992 -7.79519 11.3742
      vertex 0.494474 -7.85946 0
      vertex 0.494474 -7.85946 11.3742
    endloop
  endfacet
  facet normal -0.0627905 -0.998027 -0
    outer loop
      vertex 0.494474 -7.85946 30
      vertex -0.526992 -7.79519 13.6258
      vertex 0.494474 -7.85946 13.6258
    endloop
  endfacet
  facet normal 0.809017 -0.587785 0
    outer loop
      vertex 5.74063 -5.39081 30
      vertex 6.90091 -3.79381 0
      vertex 6.90091 -3.79381 30
    endloop
  endfacet
  facet normal 0.809017 -0.587785 0
    outer loop
      vertex 6.90091 -3.79381 0
      vertex 5.74063 -5.39081 30
      vertex 5.74063 -5.39081 0
    endloop
  endfacet
  facet normal -0.309017 -0.951056 0
    outer loop
      vertex -3.35301 -7.12551 0
      vertex -1.47563 -7.73551 30
      vertex -3.35301 -7.12551 30
    endloop
  endfacet
  facet normal -0.309017 -0.951056 -0
    outer loop
      vertex -1.47563 -7.73551 30
      vertex -3.35301 -7.12551 0
      vertex -1.47563 -7.73551 0
    endloop
  endfacet
  facet normal -1 0 0
    outer loop
      vertex -11.5 -11.5 30
      vertex -11.5 11.5 105
      vertex -11.5 11.5 30
    endloop
  endfacet
  facet normal -1 -0 0
    outer loop
      vertex -11.5 11.5 105
      vertex -11.5 -11.5 30
      vertex -11.5 -11.5 105
    endloop
  endfacet
  facet normal 0 0 1
    outer loop
      vertex 11.5 11.5 105
      vertex 10 10 105
      vertex 11.5 -11.5 105
    endloop
  endfacet
  facet normal 0 0 1
    outer loop
      vertex 11.5 11.5 105
      vertex -10 10 105
      vertex 10 10 105
    endloop
  endfacet
  facet normal 0 0 1
    outer loop
      vertex -10 10 105
      vertex -11.5 11.5 105
      vertex -10 -10 105
    endloop
  endfacet
  facet normal -0 0 1
    outer loop
      vertex -11.5 11.5 105
      vertex -10 10 105
      vertex 11.5 11.5 105
    endloop
  endfacet
  facet normal -0 0 1
    outer loop
      vertex 10 -10 105
      vertex 11.5 -11.5 105
      vertex 10 10 105
    endloop
  endfacet
  facet normal -0 0 1
    outer loop
      vertex -10 -10 105
      vertex 11.5 -11.5 105
      vertex 10 -10 105
    endloop
  endfacet
  facet normal 0 0 1
    outer loop
      vertex -10 -10 105
      vertex -11.5 -11.5 105
      vertex 11.5 -11.5 105
    endloop
  endfacet
  facet normal 0 0 1
    outer loop
      vertex -11.5 -11.5 105
      vertex -10 -10 105
      vertex -11.5 11.5 105
    endloop
  endfacet
  facet normal 1 -0 0
    outer loop
      vertex 11.5 -11.5 105
      vertex 11.5 11.5 30
      vertex 11.5 11.5 105
    endloop
  endfacet
  facet normal 1 0 0
    outer loop
      vertex 11.5 11.5 30
      vertex 11.5 -11.5 105
      vertex 11.5 -11.5 30
    endloop
  endfacet
  facet normal 0 1 -0
    outer loop
      vertex 11.5 11.5 30
      vertex -11.5 11.5 105
      vertex 11.5 11.5 105
    endloop
  endfacet
  facet normal 0 1 0
    outer loop
      vertex -11.5 11.5 105
      vertex 11.5 11.5 30
      vertex -11.5 11.5 30
    endloop
  endfacet
  facet normal 0 -1 0
    outer loop
      vertex -11.5 -11.5 30
      vertex 11.5 -11.5 105
      vertex -11.5 -11.5 105
    endloop
  endfacet
  facet normal 0 -1 -0
    outer loop
      vertex 11.5 -11.5 105
      vertex -11.5 -11.5 30
      vertex 11.5 -11.5 30
    endloop
  endfacet
  facet normal 1 -0 0
    outer loop
      vertex -10 -10 105
      vertex -10 10 33
      vertex -10 10 105
    endloop
  endfacet
  facet normal 1 0 0
    outer loop
      vertex -10 10 33
      vertex -10 -10 105
      vertex -10 -10 33
    endloop
  endfacet
  facet normal -1 0 0
    outer loop
      vertex 10 -10 33
      vertex 10 10 105
      vertex 10 10 33
    endloop
  endfacet
  facet normal -1 -0 0
    outer loop
      vertex 10 10 105
      vertex 10 -10 33
      vertex 10 -10 105
    endloop
  endfacet
  facet normal 0 -1 0
    outer loop
      vertex -10 10 33
      vertex 10 10 105
      vertex -10 10 105
    endloop
  endfacet
  facet normal 0 -1 -0
    outer loop
      vertex 10 10 105
      vertex -10 10 33
      vertex 10 10 33
    endloop
  endfacet
  facet normal -0 0 1
    outer loop
      vertex -10 10 33
      vertex 10 -10 33
      vertex 10 10 33
    endloop
  endfacet
  facet normal 0 0 1
    outer loop
      vertex 10 -10 33
      vertex -10 10 33
      vertex -10 -10 33
    endloop
  endfacet
  facet normal 0 1 -0
    outer loop
      vertex 10 -10 33
      vertex -10 -10 105
      vertex 10 -10 105
    endloop
  endfacet
  facet normal 0 1 0
    outer loop
      vertex -10 -10 105
      vertex 10 -10 33
      vertex -10 -10 33
    endloop
  endfacet
endsolid OpenSCAD_Model
